<svg xmlns="http://www.w3.org/2000/svg" xmlns:xlink="http://www.w3.org/1999/xlink" width="500" zoomAndPan="magnify" viewBox="0 0 375 225" height="300" preserveAspectRatio="xMidYMid meet" version="1.0"><defs><clipPath id="b5fffd66b8"><path d="M 277 153.207031 L 333 153.207031 L 333 202.390625 L 277 202.390625 Z M 277 153.207031 " clip-rule="nonzero"/></clipPath><clipPath id="ebd7c0348f"><path d="M 130.679688 164.230469 L 191.644531 164.230469 L 191.644531 202.390625 L 130.679688 202.390625 Z M 130.679688 164.230469 " clip-rule="nonzero"/></clipPath><clipPath id="f304574bfd"><path d="M 355.4375 73.828125 L 370.40625 73.828125 L 370.40625 86.320312 L 355.4375 86.320312 Z M 355.4375 73.828125 " clip-rule="nonzero"/></clipPath><clipPath id="885cd80f78"><path d="M 70.453125 163 L 133.617188 163 L 133.617188 202.390625 L 70.453125 202.390625 Z M 70.453125 163 " clip-rule="nonzero"/></clipPath><clipPath id="40b812bf7c"><path d="M 236.449219 148.058594 L 283 148.058594 L 283 202.390625 L 236.449219 202.390625 Z M 236.449219 148.058594 " clip-rule="nonzero"/></clipPath><clipPath id="55ee5d80c0"><path d="M 237.183594 149.53125 L 284.925781 149.53125 L 284.925781 202.390625 L 237.183594 202.390625 Z M 237.183594 149.53125 " clip-rule="nonzero"/></clipPath><clipPath id="21337e0743"><path d="M 75 172 L 93.21875 172 L 93.21875 202.390625 L 75 202.390625 Z M 75 172 " clip-rule="nonzero"/></clipPath><clipPath id="3fb1c5831a"><path d="M 76.328125 168.640625 L 136 168.640625 L 136 202.390625 L 76.328125 202.390625 Z M 76.328125 168.640625 " clip-rule="nonzero"/></clipPath><clipPath id="fc640c1be5"><path d="M 64 95.140625 L 140.230469 95.140625 L 140.230469 202.390625 L 64 202.390625 Z M 64 95.140625 " clip-rule="nonzero"/></clipPath><clipPath id="901e4eb7b2"><path d="M 12 135 L 71 135 L 71 202.390625 L 12 202.390625 Z M 12 135 " clip-rule="nonzero"/></clipPath><clipPath id="7764be2e0b"><path d="M 15.363281 128.949219 L 66 128.949219 L 66 202.390625 L 15.363281 202.390625 Z M 15.363281 128.949219 " clip-rule="nonzero"/></clipPath></defs><g clip-path="url(#b5fffd66b8)"><path fill="#42756d" d="M 332.300781 202.390625 C 333.886719 184.199219 332.460938 170.140625 329.238281 157.984375 C 324.828125 158.492188 320.695312 159.671875 316.925781 161.160156 C 317.195312 158.769531 317.34375 157.398438 317.34375 157.398438 L 282.460938 153.347656 C 282.460938 153.347656 274.753906 171.136719 277.988281 202.390625 L 332.300781 202.390625 " fill-opacity="1" fill-rule="nonzero"/></g><g clip-path="url(#ebd7c0348f)"><path fill="#42756d" d="M 184.730469 164.234375 C 163.699219 167.851562 152.417969 168.457031 130.710938 168.1875 C 131.226562 178.863281 131.316406 190.890625 132.078125 202.390625 L 191.449219 202.390625 C 189.460938 189.273438 187.097656 175.414062 184.730469 164.234375 " fill-opacity="1" fill-rule="nonzero"/></g><path fill="#f29579" d="M 347.691406 132.597656 C 341.152344 136.054688 337.09375 131.921875 334.667969 126.847656 C 332.164062 121.667969 331.367188 115.492188 331.367188 115.492188 L 325.21875 104.519531 L 319.203125 93.824219 L 318.058594 91.765625 L 315.730469 87.609375 L 306.515625 71.203125 L 306.398438 68.757812 C 308.917969 68.410156 311.539062 68.386719 314.15625 68.855469 C 314.546875 68.933594 314.933594 69.007812 315.324219 69.085938 C 315.671875 69.183594 316 69.28125 316.351562 69.378906 C 319.820312 70.386719 323.199219 72.367188 326.265625 75.746094 L 326.265625 75.765625 C 326.347656 75.839844 326.402344 75.921875 326.457031 76 C 331.660156 83.007812 337.285156 93.824219 342.601562 110.386719 C 342.621094 110.421875 342.621094 110.445312 342.621094 110.445312 C 344.179688 102.675781 350.792969 86.738281 357.003906 81.296875 C 357.777344 81.691406 357.777344 81.691406 357.777344 81.691406 C 357.777344 81.691406 360.882812 125.609375 347.691406 132.597656 " fill-opacity="1" fill-rule="nonzero"/><path fill="#ffffff" d="M 327.386719 164.035156 C 327.386719 164.035156 322.074219 164.558594 314.429688 164.523438 C 310.527344 164.503906 306.003906 164.328125 301.273438 163.84375 C 297.488281 163.492188 293.570312 162.925781 289.710938 162.09375 C 289.324219 145.6875 289.726562 130.832031 290.484375 118.074219 C 291.027344 108.890625 291.746094 100.792969 292.5 93.980469 L 292.5 93.902344 C 293.703125 82.988281 294.949219 75.417969 295.527344 72.015625 C 295.894531 71.863281 296.269531 71.691406 296.675781 71.511719 C 299.488281 70.308594 302.84375 69.222656 306.398438 68.757812 C 308.917969 68.410156 311.539062 68.386719 314.15625 68.855469 C 314.546875 68.933594 314.933594 69.007812 315.324219 69.085938 C 315.671875 69.183594 316 69.28125 316.351562 69.378906 L 319.203125 93.824219 L 320.988281 109.070312 L 327.386719 164.035156 " fill-opacity="1" fill-rule="nonzero"/><path fill="#f29579" d="M 336.453125 174.375 C 331.367188 179.867188 321.042969 179.695312 317.109375 172.507812 C 315.789062 170.101562 314.933594 166.625 314.429688 162.316406 C 312.296875 144.371094 316.039062 114.441406 315.730469 87.609375 C 315.671875 82.230469 315.4375 77.046875 314.972656 72.230469 C 314.953125 71.863281 314.914062 71.511719 314.875 71.164062 C 314.933594 70.273438 315.089844 69.589844 315.324219 69.085938 C 315.671875 69.183594 316 69.28125 316.351562 69.378906 C 319.820312 70.386719 323.199219 72.367188 326.265625 75.746094 C 326.28125 75.730469 326.28125 75.730469 326.28125 75.707031 C 326.347656 75.804688 326.402344 75.902344 326.457031 76 C 329.699219 81.296875 333.175781 90.191406 334.476562 104.5625 C 335.035156 110.871094 335.175781 118.25 334.667969 126.847656 C 334.605469 127.785156 334.550781 128.753906 334.476562 129.726562 C 332.824219 152.519531 342.992188 167.285156 336.453125 174.375 " fill-opacity="1" fill-rule="nonzero"/><path fill="#f29579" d="M 301.273438 160.902344 C 300.886719 165.855469 300.207031 169.640625 299.164062 171.773438 C 294.984375 180.257812 277.71875 178.859375 273.605469 172.414062 C 269.492188 165.988281 268.445312 159.761719 269.277344 149.453125 C 271.410156 122.445312 286.40625 87.554688 293.023438 73.242188 C 293.53125 72.992188 294.058594 72.714844 294.621094 72.445312 C 294.910156 72.308594 295.21875 72.171875 295.527344 72.015625 C 295.894531 71.863281 296.269531 71.691406 296.675781 71.511719 C 298.304688 87.574219 303.214844 136.589844 301.273438 160.902344 " fill-opacity="1" fill-rule="nonzero"/><path fill="#f29579" d="M 293.6875 113.941406 C 292.621094 115.277344 291.550781 116.65625 290.484375 118.074219 C 283.058594 127.859375 275.582031 139.257812 269.277344 149.453125 C 259.574219 165.085938 252.59375 177.917969 252.59375 177.917969 C 252.59375 177.917969 252.59375 177.917969 249.289062 175.726562 C 257.054688 113.261719 277.792969 86.058594 288.410156 75.960938 C 288.410156 75.980469 288.410156 76 288.429688 76.015625 C 288.429688 76.015625 290.179688 74.738281 293.023438 73.242188 C 293.53125 72.992188 294.058594 72.714844 294.621094 72.445312 C 294.09375 75.980469 292.933594 84.832031 292.5 93.902344 L 292.5 93.980469 C 292.15625 101.433594 292.289062 109.027344 293.6875 113.941406 " fill-opacity="1" fill-rule="nonzero"/><g clip-path="url(#f304574bfd)"><path fill="#f7bcaa" d="M 356.996094 81.300781 C 358.484375 80.21875 362.9375 83.015625 364.183594 79.75 C 367.597656 70.796875 369.617188 74.0625 370.167969 76.578125 C 371.972656 84.855469 363.105469 88.5625 356.996094 84.410156 C 356.367188 84.363281 354.472656 83.148438 356.996094 81.300781 " fill-opacity="1" fill-rule="nonzero"/></g><path fill="#f29579" d="M 342.621094 110.445312 C 342.621094 110.445312 339.035156 106.5625 334.476562 104.5625 C 331.546875 103.261719 328.222656 102.738281 325.21875 104.519531 C 323.703125 105.394531 322.273438 106.851562 320.988281 109.070312 C 320.152344 110.5 319.398438 112.230469 318.738281 114.328125 C 319.007812 105.898438 318.675781 98.3125 318.058594 91.765625 C 317.285156 83.496094 316.039062 76.851562 314.972656 72.230469 C 314.683594 70.953125 314.390625 69.824219 314.15625 68.855469 C 314.546875 68.933594 314.933594 69.007812 315.324219 69.085938 C 315.671875 69.183594 316 69.28125 316.351562 69.378906 C 319.820312 70.386719 323.199219 72.386719 326.265625 75.765625 C 326.28125 75.746094 326.28125 75.730469 326.28125 75.707031 C 326.363281 75.570312 326.226562 75.902344 326.265625 75.765625 C 336.996094 89.320312 342.296875 109.125 342.601562 110.386719 C 342.621094 110.421875 342.621094 110.445312 342.621094 110.445312 " fill-opacity="1" fill-rule="nonzero"/><path fill="#f7bcaa" d="M 297.761719 50.421875 C 292.023438 52.574219 289.386719 74.003906 296.488281 76.507812 C 309.304688 81.027344 317.082031 63.707031 317.082031 63.707031 C 317.082031 63.707031 321.902344 41.359375 297.761719 50.421875 " fill-opacity="1" fill-rule="nonzero"/><path fill="#ed6a66" d="M 314.058594 41.769531 C 314.058594 39.851562 311.832031 37.347656 306.734375 37.066406 C 301.699219 36.777344 300.269531 40.910156 300.167969 42.617188 C 294.394531 42.300781 292.351562 45.09375 290.863281 47.003906 C 289.363281 48.941406 287.550781 55.464844 292.683594 57.824219 C 292.683594 57.824219 292.78125 57.851562 292.972656 57.925781 C 293.550781 58.128906 294.113281 58.265625 294.683594 58.300781 C 294.789062 58.300781 294.902344 58.320312 295.042969 58.335938 C 298.132812 58.695312 303.773438 58.277344 308.84375 52.179688 C 305.730469 63.789062 309.292969 85.753906 312.832031 85.207031 C 317.015625 84.5625 325.289062 76.273438 327.667969 72.9375 C 331.757812 67.1875 325.300781 38.226562 314.058594 41.769531 " fill-opacity="1" fill-rule="nonzero"/><g clip-path="url(#885cd80f78)"><path fill="#87806e" d="M 133.4375 202.390625 C 131.707031 196.40625 130.332031 192.476562 130.332031 192.476562 L 122.425781 167.066406 L 89.082031 163.078125 C 89.082031 163.078125 77.671875 163.894531 72.15625 177.542969 C 71.285156 183.894531 70.753906 192.574219 70.472656 202.390625 L 133.4375 202.390625 " fill-opacity="1" fill-rule="nonzero"/></g><path fill="#ed6a66" d="M 197.835938 137.570312 C 196.492188 113.566406 192.5625 99.707031 188.882812 91.796875 L 188.878906 91.777344 L 188.859375 91.746094 C 185 83.46875 181.421875 81.726562 181.421875 81.726562 L 181.433594 81.765625 C 181.433594 81.765625 181.429688 81.757812 181.425781 81.757812 C 181.097656 81.519531 180.769531 81.3125 180.429688 81.09375 C 177.84375 79.4375 175.070312 78.054688 172.136719 76.886719 C 169.988281 76.042969 167.707031 75.320312 165.371094 74.792969 C 160.226562 73.601562 158.523438 73.378906 158.523438 73.378906 C 158.523438 73.378906 157.375 73.382812 155.390625 73.535156 C 155.066406 73.566406 154.6875 73.597656 154.320312 73.632812 C 154.300781 73.613281 154.261719 73.644531 154.214844 73.628906 C 151.238281 74.074219 147.34375 75.246094 145.210938 76.195312 C 142.488281 77.394531 139.332031 79.058594 136.117188 81.378906 C 135.117188 82.082031 134.121094 82.859375 133.132812 83.695312 L 133.128906 83.683594 C 133.105469 83.710938 133.074219 83.730469 133.042969 83.753906 C 121.761719 93.253906 107.113281 113.210938 105.648438 146.894531 C 105.40625 152.484375 121.609375 184.570312 123.304688 193.203125 C 135.523438 197.636719 149.625 189.648438 167.742188 182.300781 C 177.046875 181.808594 181.820312 188.304688 188.675781 184.386719 C 197.492188 171.15625 198.28125 145.550781 197.835938 137.570312 " fill-opacity="1" fill-rule="nonzero"/><path fill="#f7bcaa" d="M 157.792969 77.703125 C 157.792969 77.703125 149.660156 77.011719 150.117188 82.132812 C 150.578125 87.257812 155.5625 93.097656 160.984375 93.675781 C 166.398438 94.253906 171.28125 84.488281 170.398438 81.386719 C 169.511719 78.277344 157.792969 77.703125 157.792969 77.703125 " fill-opacity="1" fill-rule="nonzero"/><path fill="#f7bcaa" d="M 157.859375 66.796875 C 157.859375 66.796875 154.460938 36.699219 168.824219 40.75 C 183.183594 44.800781 186.542969 56.070312 182.308594 64.867188 C 178.078125 73.667969 165.828125 70.140625 165.828125 70.140625 L 157.859375 66.796875 " fill-opacity="1" fill-rule="nonzero"/><path fill="#42756d" d="M 157.859375 66.796875 C 157.859375 66.796875 143.296875 62.828125 152.269531 54.597656 C 149.855469 47.679688 145.679688 39.332031 154.796875 38.363281 C 158.199219 33.0625 168.648438 22.175781 172.355469 30.960938 C 177.824219 30.285156 188.3125 21.234375 187.839844 32.109375 C 187.367188 42.984375 189.613281 51.226562 183.21875 52.3125 C 175.523438 51.976562 160.351562 56.167969 157.859375 66.796875 " fill-opacity="1" fill-rule="nonzero"/><path fill="#f3bbaa" d="M 170.8125 55.855469 C 170.8125 55.855469 160.84375 45.210938 164.585938 58.308594 C 167.695312 59.808594 170.8125 55.855469 170.8125 55.855469 " fill-opacity="1" fill-rule="nonzero"/><path fill="#f3bbaa" d="M 157.859375 66.796875 C 157.859375 66.796875 155.457031 79.980469 155.589844 82.707031 C 155.535156 83.9375 169.605469 87.304688 171.335938 70.542969 C 168.75 67.453125 157.859375 66.796875 157.859375 66.796875 " fill-opacity="1" fill-rule="nonzero"/><path fill="#f7bcaa" d="M 225.113281 118.59375 C 225.113281 118.59375 218.851562 131.984375 217.839844 138.558594 C 213.042969 127.183594 203.628906 122.480469 197.945312 114.261719 C 197.257812 113.273438 193.066406 109.632812 191.210938 109.4375 C 189.226562 109.21875 189.535156 112.480469 187.519531 112.265625 C 183.054688 111.78125 173.257812 106.769531 173.660156 109.03125 C 175.84375 121.421875 193.585938 118.332031 193.585938 118.332031 C 193.585938 118.332031 207.828125 162.773438 220.367188 162.328125 C 232.910156 161.875 242.605469 140.582031 242.605469 140.582031 L 225.113281 118.59375 " fill-opacity="1" fill-rule="nonzero"/><g clip-path="url(#40b812bf7c)"><path fill="#3d3542" d="M 279.230469 202.390625 C 282.582031 188.761719 284.3125 175.820312 281.132812 169.355469 C 272.953125 152.730469 252.058594 134.921875 237.90625 164.234375 C 237.90625 164.234375 235.410156 177.695312 238.492188 202.390625 L 279.230469 202.390625 " fill-opacity="1" fill-rule="nonzero"/></g><g clip-path="url(#55ee5d80c0)"><path fill="#3d3542" d="M 283.292969 202.390625 C 284.929688 187.601562 285.042969 173.460938 280.765625 167.191406 C 270.328125 151.878906 247.148438 137.191406 237.253906 168.199219 C 237.253906 168.199219 236.730469 180.554688 242.277344 202.390625 L 283.292969 202.390625 " fill-opacity="1" fill-rule="nonzero"/></g><path fill="#ccefe8" d="M 286.953125 177.679688 C 286.589844 179.886719 286.179688 181.949219 285.726562 183.824219 C 285.527344 184.589844 285.328125 185.304688 285.136719 186 C 273.882812 195.5 235.316406 193.757812 230.710938 184.753906 C 229.277344 181.945312 223.277344 149.449219 224.917969 121.519531 C 224.960938 120.535156 225.035156 119.566406 225.113281 118.59375 C 225.554688 113.058594 226.355469 107.730469 227.621094 102.925781 C 227.597656 102.910156 227.597656 102.910156 227.621094 102.894531 C 228.992188 97.589844 230.914062 92.882812 233.550781 89.144531 C 236.726562 84.601562 240.945312 81.476562 246.453125 80.414062 C 247.398438 80.230469 249.296875 80.199219 251.777344 80.582031 C 259.152344 81.714844 271.679688 86.492188 279.664062 101.703125 C 286.644531 115.027344 288.230469 134.476562 288.546875 151.730469 C 288.714844 161.265625 288.15625 170.292969 286.953125 177.679688 " fill-opacity="1" fill-rule="nonzero"/><path fill="#f3bbaa" d="M 247.507812 122.027344 C 247.507812 122.027344 228.625 108.0625 231.46875 116.945312 C 234.304688 125.835938 235.761719 128.933594 244.453125 127.148438 C 249.828125 126.042969 247.507812 122.027344 247.507812 122.027344 " fill-opacity="1" fill-rule="nonzero"/><path fill="#f7bcaa" d="M 302.707031 144.730469 C 296.390625 156.734375 259.011719 155.394531 244.445312 126.964844 C 244.183594 126.695312 246.929688 121.628906 246.929688 121.628906 C 246.929688 121.628906 267.289062 135.492188 278.742188 133.625 C 271.992188 129.878906 266.203125 125.851562 261.355469 121.761719 C 272.714844 116.574219 276.933594 105.472656 278.519531 100.71875 C 293.488281 113.515625 309.625 131.597656 302.707031 144.730469 " fill-opacity="1" fill-rule="nonzero"/><path fill="#f3bbaa" d="M 253.144531 60.953125 C 253.144531 60.953125 252.042969 69.113281 247.183594 72.089844 C 242.328125 75.070312 246.476562 78.484375 246.242188 81.027344 C 246.039062 83.21875 244.265625 91.984375 239.253906 89 C 234.238281 86.019531 235.703125 75.105469 233.816406 77.160156 C 233.238281 77.78125 229.316406 79.878906 227.542969 79.773438 C 225.292969 79.632812 219.289062 72.667969 218.976562 70.988281 C 218.574219 68.832031 220.296875 61.617188 222.648438 59.160156 C 224.996094 56.699219 253.144531 59.703125 253.144531 60.953125 " fill-opacity="1" fill-rule="nonzero"/><path fill="#f3bbaa" d="M 222.789062 60.84375 C 222.789062 60.84375 219.960938 56.214844 220.074219 54.988281 C 220.074219 54.988281 256.429688 30.527344 252.878906 60.421875 C 245.148438 63.980469 222.789062 60.84375 222.789062 60.84375 " fill-opacity="1" fill-rule="nonzero"/><path fill="#3d3542" d="M 248.699219 69.828125 C 248.699219 69.828125 261.75 63.765625 256.316406 49.550781 C 255.132812 46.445312 244.835938 42.230469 236.246094 40.175781 C 231.097656 38.941406 231.140625 33.242188 224.980469 39.515625 C 217.722656 46.898438 220.074219 54.988281 220.074219 54.988281 L 230.730469 53.105469 C 230.730469 53.105469 238.246094 61.886719 248.699219 69.828125 " fill-opacity="1" fill-rule="nonzero"/><path fill="#f3bbaa" d="M 235.53125 58.957031 C 235.53125 58.957031 244.101562 53.316406 240.339844 63.5625 C 236.371094 63.5625 235.53125 58.957031 235.53125 58.957031 " fill-opacity="1" fill-rule="nonzero"/><path fill="#f29579" d="M 92.808594 69.6875 C 92.808594 69.6875 85.753906 70.78125 81.414062 75.066406 C 77.074219 79.351562 79.28125 82.054688 77.792969 84.617188 C 76.308594 87.171875 68.261719 83.804688 63.285156 88.363281 C 58.316406 92.914062 62.246094 99.058594 58.597656 103.460938 C 54.945312 107.867188 46.304688 104.058594 40.574219 111.976562 C 15.4375 146.726562 61.601562 170.480469 77.792969 157.960938 C 89.6875 148.773438 105.476562 83.457031 101.070312 71.769531 C 96.664062 60.078125 92.808594 69.6875 92.808594 69.6875 " fill-opacity="1" fill-rule="nonzero"/><g clip-path="url(#21337e0743)"><path fill="#4a7eff" d="M 85.773438 202.390625 C 92.34375 184.769531 93.21875 172.011719 93.21875 172.011719 L 76.210938 172.011719 C 76.210938 172.011719 75.378906 187.667969 75.101562 202.390625 L 85.773438 202.390625 " fill-opacity="1" fill-rule="nonzero"/></g><g clip-path="url(#3fb1c5831a)"><path fill="#f37d59" d="M 135.722656 202.390625 C 136.0625 190.710938 135.941406 180.917969 135.96875 173.898438 L 130.835938 173.351562 L 90.84375 168.941406 C 90.84375 168.941406 84.003906 185.480469 77.390625 200.605469 C 77.242188 201.1875 77.097656 201.785156 76.957031 202.390625 L 135.722656 202.390625 " fill-opacity="1" fill-rule="nonzero"/></g><g clip-path="url(#fc640c1be5)"><path fill="#943e38" d="M 66.71875 202.390625 L 137.074219 202.390625 C 138.726562 186.160156 140.632812 162.835938 139.808594 154.523438 C 134.292969 98.496094 119.90625 96.535156 119.90625 96.535156 C 119.90625 96.535156 114.605469 96.902344 114.171875 95.351562 C 54.71875 92.003906 64.996094 175.339844 64.996094 175.339844 C 64.996094 175.339844 65.347656 189.523438 66.71875 202.390625 " fill-opacity="1" fill-rule="nonzero"/></g><path fill="#f3bbaa" d="M 111.460938 143.738281 C 102.792969 141.210938 90.011719 160.3125 71.914062 151.242188 C 74.046875 148.941406 76.40625 145.878906 78.769531 142.476562 C 77.582031 142.066406 76.386719 141.660156 75.175781 141.277344 C 69.125 139.347656 63.425781 139.761719 57.425781 140.117188 C 57.246094 140.933594 57.0625 141.75 56.890625 142.589844 C 49.976562 175.351562 68.691406 186.335938 103.1875 156.140625 C 103.1875 156.140625 106.457031 154.707031 114.140625 155.375 C 126.148438 157.945312 131.265625 149.511719 111.460938 143.738281 " fill-opacity="1" fill-rule="nonzero"/><path fill="#943e38" d="M 88.433594 96.15625 C 88.433594 96.15625 64.347656 104.140625 56.890625 142.589844 C 59.695312 142.289062 69.222656 145.328125 73.953125 148.796875 C 86.554688 142.175781 110.21875 115.125 105.652344 107.25 C 101.089844 99.371094 100.753906 87.371094 88.433594 96.15625 " fill-opacity="1" fill-rule="nonzero"/><path fill="#ffffff" d="M 98.039062 86.398438 C 98.039062 86.398438 84.566406 88.074219 86.070312 97.042969 C 87.578125 106.007812 101.800781 101.046875 106.050781 100.558594 C 110.308594 100.078125 117.238281 102.992188 119.316406 98.523438 C 121.828125 93.125 117.949219 83.191406 98.039062 86.398438 " fill-opacity="1" fill-rule="nonzero"/><path fill="#f7bcaa" d="M 111.484375 75.9375 C 111.484375 75.9375 116.085938 93.652344 105.140625 95.484375 C 100.75 96.21875 98.871094 93.082031 98.480469 91.425781 C 97.355469 86.667969 101.347656 81.476562 99.660156 74.085938 C 105.433594 74.558594 111.484375 75.9375 111.484375 75.9375 " fill-opacity="1" fill-rule="nonzero"/><path fill="#f7bcaa" d="M 98.976562 72.027344 C 99.320312 73.535156 99.785156 76.425781 100.058594 77.847656 C 101.351562 84.566406 107.347656 84.628906 114.824219 84.269531 C 130.035156 83.53125 127.417969 54.960938 108.441406 55.488281 C 102 55.667969 97.097656 63.792969 98.976562 72.027344 " fill-opacity="1" fill-rule="nonzero"/><path fill="#f29579" d="M 124.320312 69.082031 C 135.820312 52.277344 110.054688 42.574219 105.265625 52.179688 C 85.183594 52.390625 82.96875 73.898438 100.058594 77.847656 C 97.609375 63.613281 105.894531 64.875 106.082031 59.046875 C 110.179688 68.726562 123.488281 70.292969 124.320312 69.082031 " fill-opacity="1" fill-rule="nonzero"/><path fill="#f3bbaa" d="M 101.566406 71.972656 C 100.238281 72.75 98.335938 71.964844 97.316406 70.222656 C 96.300781 68.480469 96.550781 66.4375 97.875 65.664062 C 99.207031 64.886719 101.105469 65.667969 102.128906 67.410156 C 103.140625 69.152344 102.894531 71.195312 101.566406 71.972656 " fill-opacity="1" fill-rule="nonzero"/><path fill="#ffffff" d="M 59.730469 105.539062 C 59.730469 105.539062 67.863281 121.789062 68.503906 126.859375 C 69.230469 132.664062 81.582031 165.199219 73.289062 185.363281 L 68.503906 185.03125 C 68.503906 185.03125 63.082031 169.628906 60.847656 154.953125 C 57.710938 134.375 58.242188 110.042969 59.730469 105.539062 " fill-opacity="1" fill-rule="nonzero"/><g clip-path="url(#901e4eb7b2)"><path fill="#42756d" d="M 70.472656 202.390625 C 71.890625 182.914062 68.820312 178.753906 68.820312 178.753906 C 52.296875 143.304688 23.867188 123.464844 14.320312 143.574219 C 9.179688 154.382812 15.003906 180.132812 21.640625 202.390625 L 70.472656 202.390625 " fill-opacity="1" fill-rule="nonzero"/></g><g clip-path="url(#7764be2e0b)"><path fill="#42756d" d="M 54.363281 202.390625 C 66.460938 164.339844 65.550781 142.179688 65.550781 142.179688 C 54.003906 104.679688 31.183594 156.996094 19.382812 175.777344 C 15.875 181.363281 15.355469 191.652344 16.039062 202.390625 L 54.363281 202.390625 " fill-opacity="1" fill-rule="nonzero"/></g><path fill="#8eaca6" d="M 12.46875 181.394531 C 23.144531 196.246094 68.605469 190.257812 68.605469 189.394531 C 69.101562 185.046875 69.484375 180.816406 69.765625 176.648438 C 71.359375 153.644531 69.6875 133.851562 66.984375 118.078125 C 66.464844 115.011719 65.902344 112.105469 65.316406 109.339844 C 53.511719 94.464844 44.492188 81.0625 43.0625 74.382812 C 42.65625 74.53125 42.246094 74.714844 41.835938 74.921875 C 40.257812 75.691406 38.574219 76.882812 36.59375 78.28125 C 8.21875 98.433594 4.390625 170.15625 12.46875 181.394531 " fill-opacity="1" fill-rule="nonzero"/><path fill="#ffffff" d="M 31.914062 87.167969 C 37.324219 82.925781 47.683594 88.421875 50.109375 103.503906 C 52.535156 118.589844 53.191406 145.371094 53.191406 145.371094 C 60.421875 154.5 65.828125 166.613281 70.417969 180.074219 L 67.074219 183.652344 C 67.074219 183.652344 38.097656 157.851562 34.34375 149.382812 C 28.207031 135.5625 13.71875 101.410156 31.914062 87.167969 " fill-opacity="1" fill-rule="nonzero"/><path fill="#ffffff" d="M 52.378906 125.433594 C 51.433594 120.167969 50.773438 107.636719 50.109375 103.503906 C 47.683594 88.421875 37.324219 82.925781 31.914062 87.167969 C 19.765625 96.675781 22.78125 116.652344 27.554688 131.9375 C 37.761719 130.949219 47.914062 128.40625 52.378906 125.433594 " fill-opacity="1" fill-rule="nonzero"/><path fill="#f3bbaa" d="M 69.40625 177.074219 C 69.40625 177.074219 78.292969 178.914062 74.546875 189.105469 C 68.851562 204.578125 65.179688 188.199219 65.789062 182.546875 C 69.332031 180.179688 69.40625 177.074219 69.40625 177.074219 " fill-opacity="1" fill-rule="nonzero"/><path fill="#ffffff" d="M 43.0625 74.382812 C 44.492188 81.0625 53.511719 94.464844 65.316406 109.339844 C 65.316406 109.328125 65.316406 109.328125 65.316406 109.316406 C 60.886719 88.476562 55.140625 76.722656 55.140625 76.722656 C 55.140625 76.722656 50.792969 71.515625 43.0625 74.382812 " fill-opacity="1" fill-rule="nonzero"/><path fill="#f3bbaa" d="M 39.808594 52.273438 C 39.808594 52.273438 40.933594 60.941406 45.921875 64.109375 C 50.90625 67.277344 46.648438 70.914062 46.890625 73.609375 C 47.097656 75.945312 53.992188 82.402344 55.90625 81.078125 C 60.886719 77.636719 57.710938 67.3125 59.648438 69.5 C 60.238281 70.164062 64.261719 72.390625 66.085938 72.277344 C 68.394531 72.136719 73.128906 63.523438 73.449219 61.742188 C 73.855469 59.453125 73.109375 55.332031 70.691406 52.722656 C 68.28125 50.105469 39.808594 50.941406 39.808594 52.273438 " fill-opacity="1" fill-rule="nonzero"/><path fill="#f3bbaa" d="M 70.691406 52.722656 C 70.691406 52.722656 74.394531 47.773438 73.480469 46.492188 C 71.285156 43.421875 36.160156 20.488281 39.808594 52.273438 C 47.746094 56.054688 70.691406 52.722656 70.691406 52.722656 " fill-opacity="1" fill-rule="nonzero"/><path fill="#3d3542" d="M 44.101562 62.277344 C 44.101562 62.277344 31.441406 49.828125 37.019531 34.714844 C 38.972656 29.429688 67.15625 34.03125 71.375 37.121094 C 79.507812 43.070312 75.746094 46.757812 73.359375 47.492188 C 69.019531 48.828125 62.542969 44.492188 62.542969 44.492188 C 62.542969 44.492188 54.824219 53.828125 44.101562 62.277344 " fill-opacity="1" fill-rule="nonzero"/><path fill="#f3bbaa" d="M 57.613281 50.71875 C 57.613281 50.71875 48.816406 44.714844 52.675781 55.605469 C 56.75 55.605469 57.613281 50.71875 57.613281 50.71875 " fill-opacity="1" fill-rule="nonzero"/><path fill="#7dafbf" d="M 43.0625 74.382812 C 44.492188 81.0625 53.511719 94.464844 65.316406 109.339844 C 65.902344 112.105469 66.464844 115.011719 66.984375 118.078125 C 52.183594 104.976562 43 84.671875 40.078125 75.90625 L 43.0625 74.382812 " fill-opacity="1" fill-rule="nonzero"/><path fill="#f3bbaa" d="M 251.777344 80.582031 C 249.417969 89.222656 242.035156 95.882812 236.785156 96.792969 C 233.496094 97.367188 233.21875 92.9375 233.550781 89.144531 C 236.726562 84.601562 240.46875 81.558594 245.980469 80.492188 C 246.925781 80.308594 249.296875 80.199219 251.777344 80.582031 " fill-opacity="1" fill-rule="nonzero"/><path fill="#ffffff" d="M 86.949219 94.105469 C 86.949219 94.105469 75.929688 98.757812 82.785156 108.558594 C 89.644531 118.355469 105.261719 117.378906 111.921875 117.378906 C 118.042969 117.378906 129.792969 111.007812 129.550781 106.109375 C 130.285156 98.757812 126.367188 92.878906 119.511719 93.371094 C 113.632812 96.796875 98.457031 99.492188 98.457031 99.492188 L 86.949219 94.105469 " fill-opacity="1" fill-rule="nonzero"/></svg>