<svg xmlns="http://www.w3.org/2000/svg" xmlns:xlink="http://www.w3.org/1999/xlink" width="500" zoomAndPan="magnify" viewBox="0 0 375 374.999991" height="500" preserveAspectRatio="xMidYMid meet" version="1.0"><defs><clipPath id="c8b291fed3"><path d="M 96 108 L 279 108 L 279 267 L 96 267 Z M 96 108 " clip-rule="nonzero"/></clipPath><clipPath id="466b07888e"><path d="M 205.652344 -47.136719 L 422.25 205.796875 L 169.316406 422.390625 L -47.28125 169.457031 Z M 205.652344 -47.136719 " clip-rule="nonzero"/></clipPath><clipPath id="21d2017f14"><path d="M 205.652344 -47.136719 L 422.25 205.796875 L 169.316406 422.390625 L -47.28125 169.457031 Z M 205.652344 -47.136719 " clip-rule="nonzero"/></clipPath><clipPath id="133fb2b450"><path d="M 21 20 L 354 20 L 354 354 L 21 354 Z M 21 20 " clip-rule="nonzero"/></clipPath><clipPath id="29d734430a"><path d="M 205.652344 -47.136719 L 422.25 205.796875 L 169.316406 422.390625 L -47.28125 169.457031 Z M 205.652344 -47.136719 " clip-rule="nonzero"/></clipPath><clipPath id="f3d66aff34"><path d="M 205.652344 -47.136719 L 422.25 205.796875 L 169.316406 422.390625 L -47.28125 169.457031 Z M 205.652344 -47.136719 " clip-rule="nonzero"/></clipPath></defs><g clip-path="url(#c8b291fed3)"><g clip-path="url(#466b07888e)"><g clip-path="url(#21d2017f14)"><path fill="#1e2f97" d="M 214.132812 215.59375 C 214.210938 215.492188 214.335938 215.441406 214.410156 215.335938 L 277.394531 119.53125 C 277.835938 118.855469 278.160156 118.132812 278.367188 117.355469 C 278.570312 116.578125 278.648438 115.789062 278.597656 114.984375 C 278.546875 114.183594 278.371094 113.410156 278.066406 112.664062 C 277.765625 111.917969 277.351562 111.242188 276.828125 110.628906 C 276.304688 110.019531 275.699219 109.507812 275.011719 109.09375 C 274.320312 108.679688 273.582031 108.386719 272.796875 108.210938 C 272.011719 108.039062 271.21875 107.992188 270.421875 108.078125 C 269.621094 108.160156 268.855469 108.371094 268.121094 108.703125 L 163.769531 156.199219 C 163.652344 156.253906 163.585938 156.371094 163.472656 156.429688 C 162.546875 157.074219 161.695312 157.804688 160.917969 158.617188 C 160.839844 158.71875 160.714844 158.769531 160.644531 158.875 L 97.660156 254.675781 C 97.21875 255.347656 96.894531 256.074219 96.6875 256.851562 C 96.480469 257.628906 96.402344 258.417969 96.453125 259.21875 C 96.503906 260.023438 96.683594 260.796875 96.984375 261.542969 C 97.289062 262.285156 97.699219 262.964844 98.222656 263.574219 C 98.746094 264.1875 99.351562 264.699219 100.042969 265.113281 C 100.730469 265.527344 101.46875 265.820312 102.253906 265.992188 C 103.039062 266.167969 103.832031 266.210938 104.632812 266.128906 C 105.433594 266.042969 106.199219 265.835938 106.929688 265.503906 L 211.285156 218.011719 C 211.402344 217.957031 211.46875 217.839844 211.582031 217.78125 C 212.503906 217.136719 213.355469 216.40625 214.132812 215.59375 Z M 250.886719 132.847656 L 207.433594 198.949219 L 178.890625 165.617188 Z M 124.167969 241.359375 L 167.621094 175.265625 L 196.164062 208.597656 Z M 124.167969 241.359375 " fill-opacity="1" fill-rule="nonzero"/></g></g></g><g clip-path="url(#133fb2b450)"><g clip-path="url(#29d734430a)"><g clip-path="url(#f3d66aff34)"><path fill="#1e2f97" d="M 313.917969 78.871094 C 312.144531 76.804688 310.324219 74.78125 308.453125 72.800781 C 306.582031 70.820312 304.664062 68.890625 302.699219 67.003906 C 300.734375 65.121094 298.722656 63.285156 296.667969 61.496094 C 294.613281 59.710938 292.511719 57.976562 290.371094 56.292969 C 288.230469 54.609375 286.050781 52.980469 283.828125 51.40625 C 281.609375 49.828125 279.351562 48.308594 277.054688 46.84375 C 274.761719 45.378906 272.429688 43.96875 270.066406 42.617188 C 267.699219 41.269531 265.304688 39.976562 262.875 38.742188 C 260.449219 37.507812 257.992188 36.335938 255.503906 35.222656 C 253.019531 34.113281 250.507812 33.058594 247.972656 32.070312 C 245.433594 31.082031 242.875 30.15625 240.292969 29.292969 C 237.707031 28.429688 235.105469 27.628906 232.484375 26.894531 C 229.863281 26.15625 227.222656 25.484375 224.570312 24.878906 C 221.914062 24.273438 219.246094 23.734375 216.566406 23.257812 C 213.882812 22.78125 211.191406 22.375 208.488281 22.03125 C 205.789062 21.6875 203.082031 21.410156 200.363281 21.199219 C 197.648438 20.988281 194.929688 20.847656 192.210938 20.769531 C 189.488281 20.691406 186.765625 20.683594 184.042969 20.742188 C 181.320312 20.796875 178.597656 20.921875 175.882812 21.113281 C 173.167969 21.300781 170.457031 21.558594 167.753906 21.882812 C 165.046875 22.207031 162.355469 22.597656 159.667969 23.050781 C 156.984375 23.507812 154.3125 24.03125 151.652344 24.617188 C 148.992188 25.203125 146.351562 25.855469 143.722656 26.574219 C 141.097656 27.289062 138.488281 28.070312 135.898438 28.914062 C 133.308594 29.761719 130.742188 30.667969 128.199219 31.640625 C 125.65625 32.609375 123.136719 33.644531 120.640625 34.738281 C 118.148438 35.832031 115.683594 36.988281 113.246094 38.203125 C 110.808594 39.417969 108.402344 40.691406 106.03125 42.027344 C 103.65625 43.359375 101.316406 44.75 99.007812 46.199219 C 96.703125 47.648438 94.433594 49.152344 92.203125 50.714844 C 89.96875 52.273438 87.777344 53.886719 85.625 55.554688 C 83.472656 57.222656 81.359375 58.941406 79.292969 60.714844 C 77.222656 62.484375 75.199219 64.304688 73.222656 66.175781 C 71.242188 68.046875 69.308594 69.964844 67.425781 71.929688 C 65.539062 73.894531 63.703125 75.90625 61.917969 77.960938 C 60.132812 80.019531 58.398438 82.117188 56.714844 84.257812 C 55.03125 86.398438 53.402344 88.578125 51.824219 90.800781 C 50.25 93.019531 48.730469 95.277344 47.261719 97.574219 C 45.796875 99.867188 44.390625 102.199219 43.039062 104.5625 C 41.6875 106.929688 40.398438 109.324219 39.164062 111.753906 C 37.929688 114.179688 36.757812 116.636719 35.644531 119.125 C 34.53125 121.609375 33.480469 124.121094 32.492188 126.65625 C 31.503906 129.195312 30.578125 131.753906 29.714844 134.335938 C 28.847656 136.921875 28.050781 139.523438 27.3125 142.144531 C 26.578125 144.765625 25.90625 147.40625 25.300781 150.058594 C 24.695312 152.714844 24.152344 155.382812 23.679688 158.0625 C 23.203125 160.746094 22.792969 163.4375 22.449219 166.140625 C 22.109375 168.839844 21.832031 171.550781 21.621094 174.265625 C 21.410156 176.980469 21.269531 179.699219 21.191406 182.421875 C 21.113281 185.140625 21.105469 187.863281 21.160156 190.585938 C 21.21875 193.308594 21.34375 196.03125 21.53125 198.746094 C 21.722656 201.460938 21.980469 204.171875 22.304688 206.875 C 22.628906 209.582031 23.015625 212.273438 23.472656 214.960938 C 23.929688 217.644531 24.449219 220.316406 25.039062 222.976562 C 25.625 225.636719 26.277344 228.277344 26.992188 230.90625 C 27.710938 233.53125 28.492188 236.140625 29.335938 238.730469 C 30.179688 241.320312 31.089844 243.886719 32.058594 246.429688 C 33.03125 248.972656 34.0625 251.492188 35.15625 253.988281 C 36.253906 256.480469 37.40625 258.945312 38.625 261.382812 C 39.839844 263.820312 41.113281 266.226562 42.449219 268.597656 C 43.78125 270.972656 45.171875 273.3125 46.621094 275.621094 C 48.070312 277.925781 49.574219 280.195312 51.132812 282.425781 C 52.695312 284.660156 54.308594 286.851562 55.976562 289.003906 C 57.644531 291.15625 59.363281 293.269531 61.132812 295.335938 C 62.90625 297.40625 64.726562 299.429688 66.597656 301.40625 C 68.46875 303.386719 70.386719 305.320312 72.351562 307.203125 C 74.316406 309.089844 76.328125 310.925781 78.382812 312.710938 C 80.4375 314.496094 82.535156 316.230469 84.675781 317.914062 C 86.820312 319.597656 89 321.226562 91.21875 322.804688 C 93.441406 324.378906 95.699219 325.898438 97.996094 327.367188 C 100.289062 328.832031 102.621094 330.238281 104.984375 331.589844 C 107.347656 332.941406 109.746094 334.230469 112.171875 335.464844 C 114.601562 336.699219 117.058594 337.871094 119.542969 338.984375 C 122.03125 340.097656 124.542969 341.148438 127.078125 342.136719 C 129.617188 343.125 132.175781 344.050781 134.757812 344.917969 C 137.339844 345.78125 139.945312 346.578125 142.566406 347.316406 C 145.1875 348.050781 147.824219 348.722656 150.480469 349.328125 C 153.136719 349.933594 155.804688 350.476562 158.484375 350.949219 C 161.167969 351.425781 163.859375 351.835938 166.558594 352.179688 C 169.261719 352.519531 171.96875 352.796875 174.683594 353.007812 C 177.398438 353.21875 180.117188 353.363281 182.839844 353.4375 C 185.5625 353.515625 188.285156 353.523438 191.007812 353.46875 C 193.730469 353.410156 196.449219 353.285156 199.167969 353.097656 C 201.882812 352.90625 204.59375 352.648438 207.296875 352.324219 C 210 352 212.695312 351.613281 215.382812 351.15625 C 218.066406 350.699219 220.738281 350.179688 223.398438 349.589844 C 226.054688 349.003906 228.699219 348.351562 231.328125 347.636719 C 233.953125 346.917969 236.5625 346.136719 239.152344 345.292969 C 241.738281 344.449219 244.304688 343.539062 246.851562 342.570312 C 249.394531 341.597656 251.914062 340.566406 254.40625 339.472656 C 256.902344 338.375 259.367188 337.222656 261.804688 336.003906 C 264.242188 334.789062 266.644531 333.515625 269.019531 332.179688 C 271.394531 330.847656 273.734375 329.457031 276.039062 328.007812 C 278.347656 326.558594 280.617188 325.054688 282.847656 323.496094 C 285.078125 321.933594 287.273438 320.320312 289.425781 318.652344 C 291.578125 316.984375 293.6875 315.265625 295.757812 313.496094 C 297.824219 311.722656 299.84375 309.898438 301.820312 308.027344 C 303.796875 306.15625 305.726562 304.234375 307.609375 302.269531 C 309.492188 300.300781 311.324219 298.289062 313.109375 296.234375 C 314.890625 294.175781 316.625 292.078125 318.304688 289.9375 C 319.984375 287.792969 321.613281 285.613281 323.1875 283.390625 C 324.761719 281.171875 326.28125 278.910156 327.742188 276.617188 C 329.207031 274.320312 330.613281 271.988281 331.960938 269.625 C 333.308594 267.261719 334.601562 264.863281 335.832031 262.4375 C 337.0625 260.007812 338.234375 257.550781 339.34375 255.066406 C 340.457031 252.582031 341.503906 250.070312 342.492188 247.53125 C 343.480469 244.996094 344.40625 242.4375 345.269531 239.855469 C 346.132812 237.273438 346.929688 234.671875 347.664062 232.046875 C 348.398438 229.425781 349.070312 226.789062 349.675781 224.136719 C 350.28125 221.480469 350.820312 218.8125 351.296875 216.132812 C 351.769531 213.453125 352.179688 210.761719 352.523438 208.0625 C 352.863281 205.359375 353.140625 202.652344 353.351562 199.9375 C 353.5625 197.222656 353.703125 194.507812 353.78125 191.785156 C 353.859375 189.0625 353.867188 186.339844 353.8125 183.621094 C 353.753906 180.898438 353.632812 178.179688 353.441406 175.464844 C 353.253906 172.746094 352.996094 170.039062 352.671875 167.335938 C 352.351562 164.632812 351.960938 161.9375 351.507812 159.253906 C 351.050781 156.570312 350.53125 153.898438 349.945312 151.238281 C 349.359375 148.582031 348.710938 145.9375 347.996094 143.3125 C 347.277344 140.683594 346.5 138.078125 345.65625 135.488281 C 344.8125 132.898438 343.90625 130.332031 342.9375 127.789062 C 341.96875 125.246094 340.9375 122.726562 339.847656 120.234375 C 338.753906 117.738281 337.601562 115.273438 336.386719 112.835938 C 335.175781 110.398438 333.902344 107.992188 332.570312 105.621094 C 331.238281 103.246094 329.851562 100.902344 328.40625 98.597656 C 326.957031 96.289062 325.457031 94.019531 323.898438 91.789062 C 322.34375 89.554688 320.730469 87.363281 319.066406 85.207031 C 317.402344 83.054688 315.683594 80.941406 313.917969 78.871094 Z M 72.402344 285.6875 C 70.789062 283.804688 69.222656 281.882812 67.703125 279.921875 C 66.183594 277.960938 64.714844 275.960938 63.292969 273.929688 C 61.871094 271.894531 60.5 269.828125 59.179688 267.730469 C 57.863281 265.628906 56.59375 263.496094 55.378906 261.335938 C 54.164062 259.171875 53.003906 256.980469 51.898438 254.761719 C 50.789062 252.542969 49.738281 250.296875 48.742188 248.023438 C 47.742188 245.753906 46.800781 243.457031 45.917969 241.140625 C 45.035156 238.824219 44.207031 236.484375 43.4375 234.128906 C 42.667969 231.769531 41.957031 229.394531 41.304688 227 C 40.652344 224.609375 40.058594 222.199219 39.523438 219.777344 C 38.988281 217.355469 38.511719 214.921875 38.097656 212.476562 C 37.683594 210.03125 37.328125 207.578125 37.03125 205.113281 C 36.738281 202.652344 36.503906 200.183594 36.328125 197.707031 C 36.15625 195.234375 36.042969 192.757812 35.992188 190.277344 C 35.9375 187.796875 35.949219 185.316406 36.019531 182.835938 C 36.089844 180.359375 36.21875 177.882812 36.410156 175.410156 C 36.601562 172.933594 36.851562 170.46875 37.164062 168.007812 C 37.476562 165.546875 37.851562 163.09375 38.285156 160.652344 C 38.71875 158.210938 39.210938 155.78125 39.761719 153.363281 C 40.3125 150.945312 40.925781 148.539062 41.59375 146.152344 C 42.265625 143.765625 42.992188 141.394531 43.78125 139.039062 C 44.566406 136.6875 45.410156 134.355469 46.3125 132.046875 C 47.214844 129.734375 48.171875 127.445312 49.183594 125.183594 C 50.195312 122.917969 51.265625 120.679688 52.390625 118.46875 C 53.511719 116.257812 54.6875 114.074219 55.917969 111.921875 C 57.148438 109.765625 58.433594 107.644531 59.765625 105.554688 C 61.101562 103.464844 62.488281 101.40625 63.921875 99.382812 C 65.359375 97.359375 66.84375 95.375 68.375 93.425781 C 69.910156 91.472656 71.488281 89.5625 73.117188 87.691406 C 74.742188 85.820312 76.414062 83.988281 78.132812 82.195312 C 79.847656 80.40625 81.609375 78.660156 83.410156 76.957031 C 85.214844 75.25 87.054688 73.59375 88.941406 71.980469 C 90.824219 70.367188 92.746094 68.800781 94.707031 67.28125 C 96.667969 65.761719 98.667969 64.292969 100.699219 62.871094 C 102.734375 61.449219 104.800781 60.078125 106.898438 58.761719 C 109 57.441406 111.132812 56.171875 113.292969 54.957031 C 115.457031 53.742188 117.648438 52.582031 119.867188 51.476562 C 122.085938 50.367188 124.332031 49.316406 126.605469 48.320312 C 128.875 47.320312 131.171875 46.382812 133.488281 45.496094 C 135.804688 44.613281 138.144531 43.785156 140.5 43.015625 C 142.859375 42.246094 145.234375 41.535156 147.628906 40.882812 C 150.019531 40.230469 152.429688 39.636719 154.851562 39.101562 C 157.273438 38.566406 159.707031 38.089844 162.152344 37.675781 C 164.597656 37.261719 167.050781 36.90625 169.515625 36.609375 C 171.976562 36.316406 174.445312 36.082031 176.921875 35.910156 C 179.394531 35.734375 181.871094 35.621094 184.351562 35.570312 C 186.832031 35.519531 189.3125 35.527344 191.792969 35.597656 C 194.269531 35.667969 196.746094 35.796875 199.222656 35.988281 C 201.695312 36.179688 204.160156 36.433594 206.621094 36.746094 C 209.082031 37.058594 211.535156 37.429688 213.976562 37.863281 C 216.417969 38.296875 218.847656 38.789062 221.265625 39.339844 C 223.6875 39.894531 226.089844 40.503906 228.476562 41.175781 C 230.867188 41.84375 233.234375 42.574219 235.589844 43.359375 C 237.941406 44.144531 240.273438 44.988281 242.582031 45.890625 C 244.894531 46.792969 247.183594 47.75 249.445312 48.761719 C 251.710938 49.777344 253.949219 50.84375 256.160156 51.96875 C 258.371094 53.089844 260.554688 54.265625 262.707031 55.496094 C 264.863281 56.726562 266.984375 58.011719 269.074219 59.34375 C 271.164062 60.679688 273.222656 62.066406 275.246094 63.5 C 277.269531 64.9375 279.253906 66.421875 281.203125 67.953125 C 283.15625 69.488281 285.066406 71.066406 286.9375 72.695312 C 288.8125 74.320312 290.640625 75.992188 292.433594 77.710938 C 294.222656 79.425781 295.96875 81.1875 297.671875 82.988281 C 299.378906 84.792969 301.035156 86.636719 302.648438 88.519531 C 304.261719 90.402344 305.828125 92.324219 307.347656 94.285156 C 308.867188 96.246094 310.335938 98.246094 311.757812 100.277344 C 313.179688 102.3125 314.550781 104.378906 315.867188 106.480469 C 317.1875 108.578125 318.457031 110.710938 319.671875 112.875 C 320.886719 115.035156 322.046875 117.226562 323.152344 119.445312 C 324.261719 121.667969 325.3125 123.910156 326.308594 126.183594 C 327.308594 128.453125 328.246094 130.75 329.132812 133.066406 C 330.015625 135.382812 330.84375 137.722656 331.613281 140.078125 C 332.382812 142.4375 333.09375 144.8125 333.746094 147.207031 C 334.398438 149.601562 334.992188 152.007812 335.527344 154.429688 C 336.0625 156.851562 336.539062 159.285156 336.953125 161.730469 C 337.367188 164.175781 337.722656 166.628906 338.019531 169.09375 C 338.3125 171.554688 338.546875 174.023438 338.722656 176.5 C 338.894531 178.972656 339.007812 181.453125 339.058594 183.929688 C 339.109375 186.410156 339.101562 188.890625 339.03125 191.371094 C 338.960938 193.851562 338.832031 196.328125 338.640625 198.800781 C 338.449219 201.273438 338.195312 203.738281 337.882812 206.199219 C 337.570312 208.660156 337.199219 211.113281 336.765625 213.554688 C 336.332031 215.996094 335.839844 218.429688 335.289062 220.847656 C 334.738281 223.265625 334.125 225.667969 333.453125 228.054688 C 332.785156 230.445312 332.054688 232.816406 331.269531 235.167969 C 330.484375 237.519531 329.640625 239.851562 328.738281 242.164062 C 327.835938 244.472656 326.878906 246.761719 325.867188 249.023438 C 324.851562 251.289062 323.785156 253.527344 322.660156 255.738281 C 321.539062 257.949219 320.363281 260.132812 319.132812 262.285156 C 317.902344 264.441406 316.617188 266.5625 315.285156 268.652344 C 313.949219 270.746094 312.5625 272.800781 311.128906 274.824219 C 309.691406 276.847656 308.207031 278.832031 306.675781 280.785156 C 305.140625 282.734375 303.5625 284.644531 301.933594 286.515625 C 300.308594 288.390625 298.636719 290.222656 296.917969 292.011719 C 295.203125 293.800781 293.441406 295.546875 291.640625 297.253906 C 289.835938 298.957031 287.992188 300.613281 286.109375 302.230469 C 284.222656 303.839844 282.300781 305.402344 280.339844 306.917969 C 278.375 308.4375 276.378906 309.902344 274.34375 311.320312 C 272.3125 312.742188 270.242188 314.109375 268.140625 315.425781 C 266.042969 316.742188 263.910156 318.007812 261.746094 319.21875 C 259.582031 320.433594 257.390625 321.589844 255.171875 322.695312 C 252.953125 323.800781 250.707031 324.851562 248.433594 325.847656 C 246.164062 326.84375 243.871094 327.78125 241.550781 328.664062 C 239.234375 329.546875 236.898438 330.371094 234.539062 331.140625 C 232.179688 331.90625 229.804688 332.617188 227.414062 333.269531 C 225.019531 333.921875 222.613281 334.511719 220.191406 335.046875 C 217.769531 335.578125 215.335938 336.054688 212.890625 336.46875 C 210.449219 336.882812 207.992188 337.234375 205.53125 337.53125 C 203.070312 337.824219 200.601562 338.058594 198.128906 338.230469 C 195.652344 338.402344 193.179688 338.515625 190.699219 338.566406 C 188.21875 338.617188 185.742188 338.609375 183.261719 338.539062 C 180.78125 338.46875 178.308594 338.339844 175.835938 338.148438 C 173.363281 337.957031 170.898438 337.703125 168.4375 337.390625 C 165.976562 337.082031 163.527344 336.707031 161.082031 336.273438 C 158.640625 335.84375 156.210938 335.351562 153.792969 334.800781 C 151.378906 334.246094 148.972656 333.636719 146.585938 332.96875 C 144.199219 332.300781 141.828125 331.570312 139.476562 330.785156 C 137.125 330 134.792969 329.15625 132.484375 328.257812 C 130.171875 327.359375 127.886719 326.402344 125.621094 325.390625 C 123.359375 324.378906 121.121094 323.3125 118.90625 322.191406 C 116.695312 321.070312 114.515625 319.894531 112.359375 318.664062 C 110.207031 317.4375 108.082031 316.15625 105.992188 314.824219 C 103.902344 313.488281 101.84375 312.105469 99.820312 310.671875 C 97.796875 309.238281 95.808594 307.757812 93.859375 306.226562 C 91.910156 304.695312 89.996094 303.117188 88.125 301.492188 C 86.25 299.867188 84.417969 298.199219 82.625 296.484375 C 80.835938 294.769531 79.085938 293.011719 77.382812 291.210938 C 75.675781 289.410156 74.015625 287.570312 72.402344 285.6875 Z M 72.402344 285.6875 " fill-opacity="1" fill-rule="nonzero"/></g></g></g></svg>